<svg width="160" height="161" viewBox="0 0 160 161" fill="none" xmlns="http://www.w3.org/2000/svg">
<g clip-path="url(#clip0_3_11)">
<path d="M112.88 154.878C112.88 145.994 113.043 137.351 112.813 128.718C112.691 124.19 114.288 122.356 118.922 122.503C126.435 122.74 133.965 122.449 141.482 122.564C145.082 122.618 146.506 121.201 146.419 117.556C146.246 110.058 146.368 102.554 146.368 93.5528C137.891 93.5528 129.779 93.1048 121.744 93.684C114.435 94.212 112.01 91.4792 112.781 84.4296C113.29 79.7832 112.659 75.0216 113.024 70.3464C113.139 68.8392 114.79 67.4504 115.738 66.0104C116.362 66.3016 116.986 66.5896 117.61 66.8808C117.61 73.876 117.61 80.8712 117.61 89.0568C126.688 89.0568 135.283 89.316 143.856 88.9576C148.986 88.7432 151.114 90.276 150.896 95.6488C150.563 103.863 150.538 112.11 150.896 120.321C151.133 125.786 148.874 127.15 143.824 126.938C135.44 126.593 127.03 126.846 117.718 126.846C117.718 136.263 117.478 144.887 117.808 153.489C118.006 158.657 116.326 160.692 111.002 160.484C102.554 160.154 94.0768 160.25 85.6224 160.455C81.392 160.558 79.6928 159.022 79.808 154.734C80.0096 147.217 79.7344 139.69 79.9008 132.174C79.9872 128.263 78.512 126.705 74.544 126.798C66.7936 126.983 59.0304 126.756 51.2768 126.874C47.7472 126.929 45.9904 125.694 46.2592 121.962C46.4288 119.623 46.2752 117.265 46.2784 114.913C46.2976 96.5672 47.0784 95.9944 64.3232 90.2856C67.3536 89.284 69.76 84.484 71.0144 80.932C71.5584 79.396 68.5984 76.4424 66.9408 74.3656C65.5104 72.5704 63.024 71.396 62.1248 69.4344C58.0256 60.4872 52.7648 54.26 41.184 59.2776C40.9408 54.9864 40.7328 51.3512 40.4864 47.044C19.6352 55.7128 12.304 72.1896 12.5984 93.5464C0.959997 77.5912 19.9808 46.8296 44.7456 40.2152C45.2096 43.8824 45.6608 47.4248 46.2336 51.9368C55.9008 52.5 62.5216 58.0168 66.1888 67.3256C66.6528 68.5 68.0032 69.892 69.1648 70.1352C76.7936 71.7352 75.9712 77.428 75.4816 82.852C74.9504 88.7144 72.1152 93.0664 66.3104 94.9896C50.5664 100.212 50.5472 100.193 51.0368 116.775C51.0848 118.375 51.3888 119.966 51.6896 122.567C60.4864 122.567 69.1264 122.785 77.7472 122.484C82.6336 122.311 84.3936 123.959 84.1984 128.919C83.8624 137.338 84.1056 145.783 84.1056 154.881C93.6096 154.878 102.611 154.878 112.88 154.878Z" fill="#FFEFB9"/>
<path d="M53.168 43.3226C52.8672 41.4218 51.9872 39.393 52.3776 37.649C53.4976 32.6314 54.72 27.5594 56.6304 22.8042C66.3392 -1.35584 88.9696 -3.71424 107.984 5.44736C110.205 6.51936 112.95 8.41376 113.603 10.5066C116.765 20.6442 125.808 22.7786 133.91 25.7994C140.166 28.129 141.853 31.3546 140.65 37.9274C138.032 52.2282 131.99 57.9018 117.667 57.8986C116.963 57.8986 116.259 57.8954 115.555 57.8954C102.554 57.8794 101.389 59.425 104.038 72.6314C104.502 74.9418 104.381 77.3706 103.322 79.8346C98.4128 72.3786 97.216 64.4234 99.9584 56.1898C100.378 54.9354 103.162 53.8762 104.918 53.7674C110.064 53.4442 115.245 53.7002 120.41 53.6266C129.587 53.4954 137.946 43.5018 136.323 34.3914C136.093 33.0922 134.707 31.6202 133.469 30.9514C130.387 29.2842 127.133 27.8922 123.85 26.641C118.096 24.4458 112.634 22.2762 111.12 15.1338C110.704 13.1658 108.448 11.2682 106.595 9.97216C92.1216 -0.15904 70.7136 4.80416 62.9152 20.593C59.44 27.6298 57.6352 35.489 55.0752 42.977C54.4384 43.089 53.8016 43.2042 53.168 43.3226Z" fill="#FFEFB9"/>
<path d="M81.056 65.7384C81.056 54.3816 81.056 43.0248 81.056 31.2968C88.3968 33.9816 88.8384 54.3976 81.056 65.7384Z" fill="#FFEFB9"/>
</g>
<defs>
<clipPath id="clip0_3_11">
<rect width="160" height="160" fill="white" transform="translate(0 0.5)"/>
</clipPath>
</defs>
</svg>
